<mxfile host="app.diagrams.net" modified="2023-12-18T13:20:03.768Z" agent="Mozilla/5.0 (Windows NT 10.0; Win64; x64; rv:120.0) Gecko/20100101 Firefox/120.0" etag="NUFzOipumNRmv495Cxzn" version="22.1.11" type="device">
  <diagram name="Page-1" id="u9YFtQBiOEAGp5VKIF2Y">
    <mxGraphModel dx="745" dy="1148" grid="1" gridSize="10" guides="1" tooltips="1" connect="1" arrows="1" fold="1" page="1" pageScale="1" pageWidth="827" pageHeight="1169" math="0" shadow="0">
      <root>
        <mxCell id="0" />
        <mxCell id="1" parent="0" />
        <mxCell id="2Dk7heFtjSuYPIIb7UAA-19" value="&lt;div&gt;Red Cafe&lt;br&gt;&lt;/div&gt;" style="text;html=1;strokeColor=default;fillColor=none;align=left;verticalAlign=top;whiteSpace=wrap;rounded=0;perimeterSpacing=1;labelPosition=center;verticalLabelPosition=middle;" vertex="1" parent="1">
          <mxGeometry x="120" y="90" width="120" height="100" as="geometry" />
        </mxCell>
        <mxCell id="2Dk7heFtjSuYPIIb7UAA-1" value="" style="rounded=0;whiteSpace=wrap;html=1;" vertex="1" parent="1">
          <mxGeometry x="120" y="200" width="560" height="680" as="geometry" />
        </mxCell>
        <mxCell id="2Dk7heFtjSuYPIIb7UAA-2" value="Background image" style="text;html=1;strokeColor=none;fillColor=none;align=center;verticalAlign=middle;whiteSpace=wrap;rounded=0;" vertex="1" parent="1">
          <mxGeometry x="150" y="410" width="60" height="30" as="geometry" />
        </mxCell>
        <mxCell id="2Dk7heFtjSuYPIIb7UAA-3" value="Background image" style="text;html=1;strokeColor=none;fillColor=none;align=center;verticalAlign=middle;whiteSpace=wrap;rounded=0;" vertex="1" parent="1">
          <mxGeometry x="590" y="410" width="60" height="30" as="geometry" />
        </mxCell>
        <mxCell id="2Dk7heFtjSuYPIIb7UAA-4" value="" style="rounded=0;whiteSpace=wrap;html=1;" vertex="1" parent="1">
          <mxGeometry x="240" y="260" width="320" height="560" as="geometry" />
        </mxCell>
        <mxCell id="2Dk7heFtjSuYPIIb7UAA-5" value="Home Gallery Contact" style="rounded=0;whiteSpace=wrap;html=1;fillColor=#D90000;" vertex="1" parent="1">
          <mxGeometry x="240" y="200" width="320" height="60" as="geometry" />
        </mxCell>
        <mxCell id="2Dk7heFtjSuYPIIb7UAA-9" value="Gallery" style="text;html=1;strokeColor=none;fillColor=none;align=center;verticalAlign=middle;whiteSpace=wrap;rounded=0;" vertex="1" parent="1">
          <mxGeometry x="150" y="125" width="60" height="30" as="geometry" />
        </mxCell>
        <mxCell id="2Dk7heFtjSuYPIIb7UAA-13" value="All Content (c) Red Cafe Bistro" style="rounded=0;whiteSpace=wrap;html=1;" vertex="1" parent="1">
          <mxGeometry x="240" y="820" width="320" height="60" as="geometry" />
        </mxCell>
        <mxCell id="2Dk7heFtjSuYPIIb7UAA-16" value="&lt;div align=&quot;center&quot;&gt;Colours used:&lt;div&gt;#D90000&lt;/div&gt;#A13030&lt;br&gt;#8C0000&lt;br&gt;#D94141&lt;br&gt;#590000&lt;/div&gt;" style="text;html=1;strokeColor=default;fillColor=none;align=center;verticalAlign=middle;whiteSpace=wrap;rounded=0;perimeterSpacing=1;" vertex="1" parent="1">
          <mxGeometry x="560" y="90" width="120" height="100" as="geometry" />
        </mxCell>
        <mxCell id="2Dk7heFtjSuYPIIb7UAA-18" value="Font used: Oxygen" style="text;html=1;strokeColor=default;fillColor=none;align=center;verticalAlign=top;whiteSpace=wrap;rounded=0;perimeterSpacing=1;labelPosition=center;verticalLabelPosition=middle;" vertex="1" parent="1">
          <mxGeometry x="340" y="90" width="120" height="100" as="geometry" />
        </mxCell>
        <mxCell id="2Dk7heFtjSuYPIIb7UAA-41" value="&lt;h1&gt;Contact&lt;/h1&gt;&lt;p&gt;Lorem ipsum dolor sit amet, consectetur adipisicing elit, sed do eiusmod tempor incididunt ut labore et dolore magna aliqua.&lt;/p&gt;" style="text;html=1;strokeColor=none;fillColor=none;spacing=5;spacingTop=-20;whiteSpace=wrap;overflow=hidden;rounded=0;" vertex="1" parent="1">
          <mxGeometry x="250" y="270" width="300" height="120" as="geometry" />
        </mxCell>
        <mxCell id="2Dk7heFtjSuYPIIb7UAA-42" value="" style="rounded=0;whiteSpace=wrap;html=1;" vertex="1" parent="1">
          <mxGeometry x="250" y="390" width="300" height="20" as="geometry" />
        </mxCell>
        <mxCell id="2Dk7heFtjSuYPIIb7UAA-43" value="Name" style="text;html=1;strokeColor=none;fillColor=none;align=center;verticalAlign=middle;whiteSpace=wrap;rounded=0;" vertex="1" parent="1">
          <mxGeometry x="250" y="370" width="60" height="20" as="geometry" />
        </mxCell>
        <mxCell id="2Dk7heFtjSuYPIIb7UAA-47" value="" style="rounded=0;whiteSpace=wrap;html=1;" vertex="1" parent="1">
          <mxGeometry x="250" y="440" width="300" height="20" as="geometry" />
        </mxCell>
        <mxCell id="2Dk7heFtjSuYPIIb7UAA-48" value="Email" style="text;html=1;strokeColor=none;fillColor=none;align=center;verticalAlign=middle;whiteSpace=wrap;rounded=0;" vertex="1" parent="1">
          <mxGeometry x="250" y="420" width="60" height="20" as="geometry" />
        </mxCell>
        <mxCell id="2Dk7heFtjSuYPIIb7UAA-49" value="" style="rounded=0;whiteSpace=wrap;html=1;" vertex="1" parent="1">
          <mxGeometry x="250" y="500" width="300" height="20" as="geometry" />
        </mxCell>
        <mxCell id="2Dk7heFtjSuYPIIb7UAA-50" value="Time" style="text;html=1;strokeColor=none;fillColor=none;align=center;verticalAlign=middle;whiteSpace=wrap;rounded=0;" vertex="1" parent="1">
          <mxGeometry x="250" y="480" width="60" height="20" as="geometry" />
        </mxCell>
        <mxCell id="2Dk7heFtjSuYPIIb7UAA-51" value="" style="rounded=0;whiteSpace=wrap;html=1;" vertex="1" parent="1">
          <mxGeometry x="250" y="560" width="300" height="20" as="geometry" />
        </mxCell>
        <mxCell id="2Dk7heFtjSuYPIIb7UAA-52" value="Party Size" style="text;html=1;strokeColor=none;fillColor=none;align=center;verticalAlign=middle;whiteSpace=wrap;rounded=0;" vertex="1" parent="1">
          <mxGeometry x="250" y="540" width="90" height="20" as="geometry" />
        </mxCell>
        <mxCell id="2Dk7heFtjSuYPIIb7UAA-53" value="" style="rounded=0;whiteSpace=wrap;html=1;" vertex="1" parent="1">
          <mxGeometry x="250" y="620" width="300" height="20" as="geometry" />
        </mxCell>
        <mxCell id="2Dk7heFtjSuYPIIb7UAA-54" value="Date" style="text;html=1;strokeColor=none;fillColor=none;align=center;verticalAlign=middle;whiteSpace=wrap;rounded=0;" vertex="1" parent="1">
          <mxGeometry x="250" y="600" width="60" height="20" as="geometry" />
        </mxCell>
        <mxCell id="2Dk7heFtjSuYPIIb7UAA-57" value="Submit" style="rounded=0;whiteSpace=wrap;html=1;fillColor=#D90000;" vertex="1" parent="1">
          <mxGeometry x="250" y="660" width="300" height="30" as="geometry" />
        </mxCell>
        <mxCell id="2Dk7heFtjSuYPIIb7UAA-58" value="" style="verticalLabelPosition=bottom;shadow=0;dashed=0;align=center;html=1;verticalAlign=top;strokeWidth=1;shape=mxgraph.mockup.misc.map;" vertex="1" parent="1">
          <mxGeometry x="350" y="705" width="100" height="100" as="geometry" />
        </mxCell>
      </root>
    </mxGraphModel>
  </diagram>
</mxfile>
